<svg width="24" height="24" viewBox="0 0 24 24" fill="none" xmlns="http://www.w3.org/2000/svg">
<circle opacity="0.2" cx="12" cy="12" r="12" fill="#FFCC00"/>
<g clip-path="url(#clip0)">
<path d="M16.1999 9.9707C16.1299 12.2107 14.6599 14.1707 12.4199 15.0107C13.1199 15.7107 14.0999 16.2007 15.2899 16.2007C15.3599 16.2007 15.4299 16.2007 15.4299 16.2007L17.5299 18.3007V15.5007C18.4399 14.9407 18.9999 14.0307 18.9999 13.0507C18.9999 11.5807 17.8099 10.3207 16.1999 9.9707Z" fill="white"/>
<path d="M9.9 5.69922C7.17 5.69922 5 7.58922 5 9.89922C5 11.0192 5.56 12.0692 6.4 12.8392V16.8992L9.27 14.0292C9.48 14.0992 9.69 14.0992 9.9 14.0992C12.63 14.0992 14.8 12.2092 14.8 9.89922C14.8 7.58922 12.63 5.69922 9.9 5.69922ZM7.1 10.5992C6.68 10.5992 6.4 10.3192 6.4 9.89922C6.4 9.47922 6.68 9.19922 7.1 9.19922C7.52 9.19922 7.8 9.47922 7.8 9.89922C7.8 10.3192 7.52 10.5992 7.1 10.5992ZM9.9 10.5992C9.48 10.5992 9.2 10.3192 9.2 9.89922C9.2 9.47922 9.48 9.19922 9.9 9.19922C10.32 9.19922 10.6 9.47922 10.6 9.89922C10.6 10.3192 10.32 10.5992 9.9 10.5992ZM12.7 10.5992C12.28 10.5992 12 10.3192 12 9.89922C12 9.47922 12.28 9.19922 12.7 9.19922C13.12 9.19922 13.4 9.47922 13.4 9.89922C13.4 10.3192 13.12 10.5992 12.7 10.5992Z" fill="white"/>
</g>
<defs>
<clipPath id="clip0">
<rect width="14" height="14" fill="white" transform="translate(5 5)"/>
</clipPath>
</defs>
</svg>
