<svg width="199" height="195" viewBox="0 0 199 195" fill="none" xmlns="http://www.w3.org/2000/svg">
<circle cx="97.5" cy="97.5" r="97.5" fill="#F29D0E"/>
<path d="M32.5859 89V55.4844H48.2891C54.6641 55.4844 57.8516 58.0859 57.8516 63.2891C57.8516 67.1016 55.7734 69.8281 51.6172 71.4688C56.0547 72.2969 58.2734 74.8359 58.2734 79.0859C58.2734 85.6953 54.7812 89 47.7969 89H32.5859ZM47.5391 83.6094C50.2891 83.6094 51.6641 82.2031 51.6641 79.3906C51.6641 75.9062 49.6094 74.1641 45.5 74.1641H43.625V70.1562C48.7812 69.2969 51.3594 67.1406 51.3594 63.6875C51.3594 61.8125 50.2031 60.875 47.8906 60.875H38.7969V83.6094H47.5391ZM68.8438 72.1484C68.8438 79.9453 72.3047 83.8438 79.2266 83.8438C85.9766 83.8438 89.3516 79.9453 89.3516 72.1484C89.3516 64.4766 85.9766 60.6406 79.2266 60.6406C72.3047 60.6406 68.8438 64.4766 68.8438 72.1484ZM62.3984 72.2891C62.3984 60.9297 68.0078 55.25 79.2266 55.25C90.2734 55.25 95.7969 60.9297 95.7969 72.2891C95.7969 83.5859 90.2734 89.2344 79.2266 89.2344C68.5078 89.2344 62.8984 83.5859 62.3984 72.2891ZM106.953 72.1484C106.953 79.9453 110.414 83.8438 117.336 83.8438C124.086 83.8438 127.461 79.9453 127.461 72.1484C127.461 64.4766 124.086 60.6406 117.336 60.6406C110.414 60.6406 106.953 64.4766 106.953 72.1484ZM100.508 72.2891C100.508 60.9297 106.117 55.25 117.336 55.25C128.383 55.25 133.906 60.9297 133.906 72.2891C133.906 83.5859 128.383 89.2344 117.336 89.2344C106.617 89.2344 101.008 83.5859 100.508 72.2891ZM146 55.4844V89H139.789V55.4844H146ZM169.578 55.4844L155.281 71.1172L171.078 89H162.477L149.516 73.3438V69.3125L161.984 55.4844H169.578ZM26.5156 143V109.484H41.5156C48.3594 109.484 51.7812 112.633 51.7812 118.93C51.7812 125.758 47.1016 129.891 37.7422 131.328L36.8516 125.797C42.4766 124.781 45.2891 122.555 45.2891 119.117C45.2891 116.336 43.8984 114.945 41.1172 114.945H32.7266V143H26.5156ZM62.1172 109.484V137.609H75.4297V143H55.9062V109.484H62.1172ZM84.7578 143H78.3828L92.6094 109.484H99.2891L113.82 143H107.141L103.32 133.859H92.1875L94.3203 128.469H101.07L95.7969 115.883L84.7578 143ZM144.641 141.594C141.75 142.688 138.469 143.234 134.797 143.234C122.766 143.234 116.75 137.414 116.75 125.773C116.75 114.758 122.766 109.25 134.797 109.25C138.469 109.25 141.75 109.797 144.641 110.891V116.516C141.75 115.266 138.625 114.641 135.266 114.641C127.219 114.641 123.195 118.352 123.195 125.773C123.195 133.82 127.219 137.844 135.266 137.844C138.625 137.844 141.75 137.219 144.641 135.969V141.594ZM173.445 109.484V114.828H156.664V123.266H172.648V128.82H156.594V137.609H173.773V143H150.5V109.484H173.445Z" fill="white"/>
</svg>
